<?xml version="1.0" encoding="utf-8"?>
<!-- Generator: Adobe Illustrator 23.0.6, SVG Export Plug-In . SVG Version: 6.00 Build 0)  -->
<svg version="1.1" id="Layer_1" xmlns="http://www.w3.org/2000/svg" xmlns:xlink="http://www.w3.org/1999/xlink" x="0px" y="0px"
	 viewBox="0 0 250 250" style="enable-background:new 0 0 250 250;" xml:space="preserve">
<style type="text/css">
	.st0{fill:#F6FF2E;}
	.st1{stroke:#000000;stroke-miterlimit:10;}
	.st2{fill:#FFFFFF;stroke:#FFFFFF;stroke-miterlimit:10;}
	.st3{fill:#FFFFFF;}
</style>
<rect class="st0" width="250" height="250"/>
<rect x="20.5" y="20.5" class="st1" width="45" height="45"/>
<line class="st2" x1="20.5" y1="20.5" x2="65.5" y2="65.5"/>
<line class="st2" x1="65.5" y1="20.5" x2="20.5" y2="65.5"/>
<g>
	<path d="M81.62,44.45h2.5v17.27h8.27v2.1H81.62V44.45z"/>
	<path d="M107.27,56.75c0,5.14-3.56,7.38-6.92,7.38c-3.76,0-6.67-2.76-6.67-7.15c0-4.65,3.05-7.38,6.9-7.38
		C104.57,49.59,107.27,52.5,107.27,56.75z M96.24,56.89c0,3.05,1.75,5.34,4.22,5.34c2.41,0,4.22-2.27,4.22-5.4
		c0-2.36-1.18-5.34-4.17-5.34S96.24,54.25,96.24,56.89z"/>
	<path d="M122.44,49.91c-0.06,1.01-0.11,2.13-0.11,3.82v8.07c0,3.19-0.63,5.14-1.98,6.35c-1.35,1.26-3.3,1.67-5.06,1.67
		c-1.67,0-3.51-0.4-4.63-1.15l0.63-1.93c0.92,0.57,2.36,1.09,4.08,1.09c2.59,0,4.48-1.35,4.48-4.86v-1.55h-0.06
		c-0.78,1.29-2.27,2.33-4.42,2.33c-3.45,0-5.92-2.93-5.92-6.78c0-4.71,3.07-7.38,6.26-7.38c2.41,0,3.74,1.26,4.34,2.41h0.06
		l0.11-2.1H122.44z M119.83,55.4c0-0.43-0.03-0.8-0.14-1.15c-0.46-1.47-1.69-2.67-3.53-2.67c-2.41,0-4.14,2.04-4.14,5.26
		c0,2.73,1.38,5,4.11,5c1.55,0,2.96-0.98,3.51-2.59c0.14-0.43,0.2-0.92,0.2-1.35V55.4z"/>
	<path d="M139.11,56.75c0,5.14-3.56,7.38-6.92,7.38c-3.76,0-6.67-2.76-6.67-7.15c0-4.65,3.05-7.38,6.9-7.38
		C136.41,49.59,139.11,52.5,139.11,56.75z M128.07,56.89c0,3.05,1.75,5.34,4.22,5.34c2.41,0,4.22-2.27,4.22-5.4
		c0-2.36-1.18-5.34-4.17-5.34C129.37,51.49,128.07,54.25,128.07,56.89z"/>
</g>
<g>
	<path d="M20.61,99.33c0.64-0.1,1.39-0.17,2.22-0.17c1.5,0,2.57,0.35,3.27,1.01c0.72,0.66,1.14,1.6,1.14,2.9
		c0,1.32-0.41,2.4-1.16,3.14c-0.76,0.76-2,1.16-3.57,1.16c-0.74,0-1.37-0.04-1.9-0.1V99.33z M21.65,106.48
		c0.26,0.05,0.65,0.06,1.06,0.06c2.23,0,3.44-1.25,3.44-3.43c0.01-1.91-1.07-3.12-3.27-3.12c-0.54,0-0.95,0.05-1.22,0.11V106.48z"/>
	<path d="M29.2,104.6c0.02,1.43,0.94,2.01,1.99,2.01c0.76,0,1.21-0.13,1.61-0.3l0.18,0.76c-0.37,0.17-1.01,0.36-1.93,0.36
		c-1.79,0-2.85-1.18-2.85-2.93s1.03-3.13,2.72-3.13c1.9,0,2.4,1.67,2.4,2.73c0,0.22-0.02,0.38-0.04,0.49H29.2z M32.3,103.84
		c0.01-0.67-0.28-1.71-1.46-1.71c-1.07,0-1.54,0.98-1.62,1.71H32.3z"/>
	<path d="M35.9,99.84v1.67h1.51v0.8H35.9v3.13c0,0.72,0.2,1.13,0.79,1.13c0.28,0,0.48-0.04,0.61-0.07l0.05,0.79
		c-0.2,0.08-0.53,0.14-0.94,0.14c-0.49,0-0.89-0.16-1.14-0.44c-0.3-0.31-0.41-0.83-0.41-1.51v-3.17h-0.9v-0.8h0.9v-1.39L35.9,99.84z
		"/>
	<path d="M41.81,107.31l-0.08-0.73h-0.04c-0.32,0.46-0.95,0.86-1.77,0.86c-1.18,0-1.77-0.83-1.77-1.67c0-1.4,1.25-2.17,3.49-2.16
		v-0.12c0-0.48-0.13-1.34-1.32-1.34c-0.54,0-1.1,0.17-1.51,0.43l-0.24-0.7c0.48-0.31,1.18-0.52,1.91-0.52
		c1.77,0,2.21,1.21,2.21,2.37v2.17c0,0.5,0.02,1,0.1,1.39H41.81z M41.66,104.35c-1.15-0.02-2.46,0.18-2.46,1.31
		c0,0.68,0.46,1.01,1,1.01c0.76,0,1.24-0.48,1.4-0.97c0.04-0.11,0.06-0.23,0.06-0.34V104.35z"/>
	<path d="M45.56,99.87c0.01,0.36-0.25,0.65-0.67,0.65c-0.37,0-0.64-0.29-0.64-0.65c0-0.37,0.28-0.66,0.66-0.66
		C45.31,99.21,45.56,99.5,45.56,99.87z M44.38,107.31v-5.8h1.06v5.8H44.38z"/>
	<path d="M47.19,98.79h1.06v8.52h-1.06V98.79z"/>
	<path d="M49.88,106.23c0.31,0.2,0.86,0.42,1.39,0.42c0.77,0,1.13-0.38,1.13-0.86c0-0.5-0.3-0.78-1.08-1.07
		c-1.04-0.37-1.54-0.95-1.54-1.64c0-0.94,0.76-1.7,2-1.7c0.59,0,1.1,0.17,1.43,0.36l-0.26,0.77c-0.23-0.14-0.65-0.34-1.19-0.34
		c-0.62,0-0.97,0.36-0.97,0.79c0,0.48,0.35,0.7,1.1,0.98c1.01,0.38,1.52,0.89,1.52,1.75c0,1.02-0.79,1.74-2.17,1.74
		c-0.64,0-1.22-0.16-1.63-0.4L49.88,106.23z"/>
	<path d="M60.53,107.31l-0.08-0.73h-0.04c-0.32,0.46-0.95,0.86-1.77,0.86c-1.18,0-1.77-0.83-1.77-1.67c0-1.4,1.25-2.17,3.49-2.16
		v-0.12c0-0.48-0.13-1.34-1.32-1.34c-0.54,0-1.1,0.17-1.51,0.43l-0.24-0.7c0.48-0.31,1.18-0.52,1.91-0.52
		c1.77,0,2.21,1.21,2.21,2.37v2.17c0,0.5,0.02,1,0.1,1.39H60.53z M60.38,104.35c-1.15-0.02-2.46,0.18-2.46,1.31
		c0,0.68,0.46,1.01,1,1.01c0.76,0,1.24-0.48,1.4-0.97c0.04-0.11,0.06-0.23,0.06-0.34V104.35z"/>
	<path d="M63.05,107.31c0.02-0.4,0.05-0.98,0.05-1.5v-7.02h1.04v3.65h0.02c0.37-0.65,1.04-1.07,1.98-1.07c1.44,0,2.46,1.2,2.45,2.96
		c0,2.08-1.31,3.11-2.6,3.11c-0.84,0-1.51-0.32-1.94-1.09h-0.04l-0.05,0.96H63.05z M64.15,104.98c0,0.13,0.02,0.26,0.05,0.38
		c0.2,0.73,0.82,1.24,1.58,1.24c1.1,0,1.76-0.9,1.76-2.23c0-1.16-0.6-2.16-1.73-2.16c-0.72,0-1.39,0.49-1.61,1.3
		c-0.02,0.12-0.06,0.26-0.06,0.43V104.98z"/>
	<path d="M75.18,104.36c0,2.15-1.49,3.08-2.89,3.08c-1.57,0-2.78-1.15-2.78-2.99c0-1.94,1.27-3.08,2.88-3.08
		C74.06,101.37,75.18,102.58,75.18,104.36z M70.58,104.42c0,1.27,0.73,2.23,1.76,2.23c1.01,0,1.76-0.95,1.76-2.25
		c0-0.98-0.49-2.23-1.74-2.23C71.12,102.16,70.58,103.32,70.58,104.42z"/>
	<path d="M81.38,105.73c0,0.6,0.01,1.13,0.05,1.58h-0.94l-0.06-0.95H80.4c-0.28,0.47-0.89,1.08-1.92,1.08c-0.91,0-2-0.5-2-2.54
		v-3.39h1.06v3.21c0,1.1,0.34,1.85,1.3,1.85c0.71,0,1.2-0.49,1.39-0.96c0.06-0.16,0.1-0.35,0.1-0.54v-3.56h1.06V105.73z"/>
	<path d="M84.4,99.84v1.67h1.51v0.8H84.4v3.13c0,0.72,0.2,1.13,0.79,1.13c0.28,0,0.48-0.04,0.61-0.07l0.05,0.79
		c-0.2,0.08-0.53,0.14-0.94,0.14c-0.49,0-0.89-0.16-1.14-0.44c-0.3-0.31-0.41-0.83-0.41-1.51v-3.17h-0.9v-0.8h0.9v-1.39L84.4,99.84z
		"/>
	<path d="M90.92,99.84v1.67h1.51v0.8h-1.51v3.13c0,0.72,0.2,1.13,0.79,1.13c0.28,0,0.48-0.04,0.61-0.07l0.05,0.79
		c-0.2,0.08-0.53,0.14-0.94,0.14c-0.49,0-0.89-0.16-1.14-0.44c-0.3-0.31-0.41-0.83-0.41-1.51v-3.17h-0.9v-0.8h0.9v-1.39L90.92,99.84
		z"/>
	<path d="M93.62,98.79h1.06v3.62h0.02c0.17-0.3,0.43-0.56,0.76-0.74c0.31-0.18,0.68-0.3,1.08-0.3c0.78,0,2.03,0.48,2.03,2.48v3.45
		H97.5v-3.33c0-0.94-0.35-1.73-1.34-1.73c-0.68,0-1.22,0.48-1.42,1.06c-0.06,0.14-0.07,0.3-0.07,0.5v3.5h-1.06V98.79z"/>
	<path d="M100.87,104.6c0.02,1.43,0.94,2.01,1.99,2.01c0.76,0,1.21-0.13,1.61-0.3l0.18,0.76c-0.37,0.17-1.01,0.36-1.93,0.36
		c-1.79,0-2.85-1.18-2.85-2.93s1.03-3.13,2.72-3.13c1.9,0,2.4,1.67,2.4,2.73c0,0.22-0.02,0.38-0.04,0.49H100.87z M103.96,103.84
		c0.01-0.67-0.28-1.71-1.46-1.71c-1.07,0-1.54,0.98-1.62,1.71H103.96z"/>
	<path d="M108.83,103.4c0-0.74-0.02-1.34-0.05-1.9h0.95l0.05,1h0.02c0.43-0.71,1.12-1.13,2.06-1.13c1.4,0,2.46,1.19,2.46,2.95
		c0,2.09-1.27,3.12-2.64,3.12c-0.77,0-1.44-0.34-1.79-0.91h-0.02v3.15h-1.04V103.4z M109.88,104.95c0,0.16,0.02,0.3,0.05,0.43
		c0.19,0.73,0.83,1.24,1.58,1.24c1.12,0,1.76-0.91,1.76-2.24c0-1.16-0.61-2.16-1.73-2.16c-0.72,0-1.39,0.52-1.6,1.31
		c-0.04,0.13-0.07,0.29-0.07,0.43V104.95z"/>
	<path d="M115.66,103.32c0-0.68-0.01-1.27-0.05-1.81h0.92l0.04,1.14h0.05c0.26-0.78,0.9-1.27,1.61-1.27c0.12,0,0.2,0.01,0.3,0.04v1
		c-0.11-0.02-0.22-0.04-0.36-0.04c-0.74,0-1.27,0.56-1.42,1.36c-0.02,0.14-0.05,0.31-0.05,0.49v3.09h-1.04V103.32z"/>
	<path d="M124.72,104.36c0,2.15-1.49,3.08-2.89,3.08c-1.57,0-2.78-1.15-2.78-2.99c0-1.94,1.27-3.08,2.88-3.08
		C123.59,101.37,124.72,102.58,124.72,104.36z M120.11,104.42c0,1.27,0.73,2.23,1.76,2.23c1.01,0,1.76-0.95,1.76-2.25
		c0-0.98-0.49-2.23-1.74-2.23C120.65,102.16,120.11,103.32,120.11,104.42z"/>
	<path d="M126.05,103.08c0-0.6-0.01-1.09-0.05-1.57h0.92l0.05,0.94h0.04c0.32-0.55,0.86-1.07,1.82-1.07c0.79,0,1.39,0.48,1.64,1.16
		h0.02c0.18-0.32,0.41-0.58,0.65-0.76c0.35-0.26,0.73-0.41,1.28-0.41c0.77,0,1.91,0.5,1.91,2.52v3.42h-1.03v-3.29
		c0-1.12-0.41-1.79-1.26-1.79c-0.6,0-1.07,0.44-1.25,0.96c-0.05,0.14-0.08,0.34-0.08,0.53v3.59h-1.03v-3.48
		c0-0.92-0.41-1.6-1.21-1.6c-0.66,0-1.14,0.53-1.31,1.06c-0.06,0.16-0.08,0.34-0.08,0.52v3.5h-1.03V103.08z"/>
	<path d="M141.31,104.36c0,2.15-1.49,3.08-2.89,3.08c-1.57,0-2.78-1.15-2.78-2.99c0-1.94,1.27-3.08,2.88-3.08
		C140.19,101.37,141.31,102.58,141.31,104.36z M136.71,104.42c0,1.27,0.73,2.23,1.76,2.23c1.01,0,1.76-0.95,1.76-2.25
		c0-0.98-0.49-2.23-1.74-2.23C137.25,102.16,136.71,103.32,136.71,104.42z"/>
	<path d="M143.92,99.84v1.67h1.51v0.8h-1.51v3.13c0,0.72,0.2,1.13,0.79,1.13c0.28,0,0.48-0.04,0.61-0.07l0.05,0.79
		c-0.2,0.08-0.53,0.14-0.94,0.14c-0.49,0-0.89-0.16-1.14-0.44c-0.3-0.31-0.41-0.83-0.41-1.51v-3.17h-0.9v-0.8h0.9v-1.39
		L143.92,99.84z"/>
	<path d="M147.8,99.87c0.01,0.36-0.25,0.65-0.67,0.65c-0.37,0-0.64-0.29-0.64-0.65c0-0.37,0.28-0.66,0.66-0.66
		C147.54,99.21,147.8,99.5,147.8,99.87z M146.62,107.31v-5.8h1.05v5.8H146.62z"/>
	<path d="M154.68,104.36c0,2.15-1.49,3.08-2.89,3.08c-1.57,0-2.78-1.15-2.78-2.99c0-1.94,1.27-3.08,2.88-3.08
		C153.55,101.37,154.68,102.58,154.68,104.36z M150.08,104.42c0,1.27,0.73,2.23,1.76,2.23c1.01,0,1.76-0.95,1.76-2.25
		c0-0.98-0.49-2.23-1.74-2.23C150.62,102.16,150.08,103.32,150.08,104.42z"/>
	<path d="M156.02,103.08c0-0.6-0.01-1.09-0.05-1.57h0.94l0.06,0.96h0.02c0.29-0.55,0.96-1.09,1.92-1.09c0.8,0,2.05,0.48,2.05,2.47
		v3.47h-1.05v-3.35c0-0.94-0.35-1.71-1.34-1.71c-0.7,0-1.24,0.49-1.42,1.08c-0.05,0.13-0.07,0.31-0.07,0.49v3.49h-1.05V103.08z"/>
	<path d="M162.42,106.69c0-0.44,0.3-0.76,0.72-0.76c0.42,0,0.71,0.31,0.71,0.76c0,0.43-0.28,0.76-0.72,0.76
		C162.71,107.44,162.42,107.12,162.42,106.69z"/>
	<path d="M21.65,113.63v8.08h-1.04v-8.08H21.65z"/>
	<path d="M28.46,113.19v7.02c0,0.52,0.01,1.1,0.05,1.5h-0.95l-0.05-1.01h-0.02c-0.32,0.65-1.03,1.14-1.98,1.14
		c-1.4,0-2.48-1.19-2.48-2.95c-0.01-1.93,1.19-3.12,2.6-3.12c0.89,0,1.49,0.42,1.75,0.89h0.02v-3.47H28.46z M27.4,118.27
		c0-0.13-0.01-0.31-0.05-0.44c-0.16-0.67-0.73-1.22-1.52-1.22c-1.09,0-1.74,0.96-1.74,2.24c0,1.18,0.58,2.15,1.72,2.15
		c0.71,0,1.35-0.47,1.55-1.26c0.04-0.14,0.05-0.29,0.05-0.46V118.27z"/>
	<path d="M30.8,119c0.02,1.43,0.94,2.01,1.99,2.01c0.76,0,1.21-0.13,1.61-0.3l0.18,0.76c-0.37,0.17-1.01,0.36-1.93,0.36
		c-1.79,0-2.85-1.18-2.85-2.93c0-1.75,1.03-3.13,2.72-3.13c1.9,0,2.4,1.67,2.4,2.73c0,0.22-0.02,0.38-0.04,0.49H30.8z M33.89,118.24
		c0.01-0.67-0.28-1.71-1.46-1.71c-1.07,0-1.54,0.98-1.62,1.71H33.89z"/>
	<path d="M39.44,121.71l-0.08-0.73h-0.04c-0.32,0.46-0.95,0.86-1.77,0.86c-1.18,0-1.77-0.83-1.77-1.67c0-1.4,1.25-2.17,3.49-2.16
		v-0.12c0-0.48-0.13-1.34-1.32-1.34c-0.54,0-1.1,0.17-1.51,0.43l-0.24-0.7c0.48-0.31,1.18-0.52,1.91-0.52
		c1.77,0,2.21,1.21,2.21,2.37v2.17c0,0.5,0.02,1,0.1,1.39H39.44z M39.28,118.75c-1.15-0.02-2.46,0.18-2.46,1.31
		c0,0.68,0.46,1.01,1,1.01c0.76,0,1.24-0.48,1.4-0.97c0.04-0.11,0.06-0.23,0.06-0.34V118.75z"/>
	<path d="M42.01,113.19h1.06v8.52h-1.06V113.19z"/>
	<path d="M44.84,113.19h1.06v8.52h-1.06V113.19z"/>
	<path d="M48.05,115.9l1.27,3.43c0.13,0.38,0.28,0.84,0.37,1.19h0.02c0.11-0.35,0.23-0.79,0.37-1.21l1.15-3.41h1.12l-1.58,4.14
		c-0.76,1.99-1.27,3.01-1.99,3.63c-0.52,0.46-1.03,0.64-1.29,0.68l-0.26-0.89c0.26-0.08,0.61-0.25,0.92-0.52
		c0.29-0.23,0.65-0.64,0.89-1.18c0.05-0.11,0.08-0.19,0.08-0.25c0-0.06-0.02-0.14-0.07-0.28l-2.15-5.35H48.05z"/>
	<path d="M61.12,118.76c0,2.15-1.49,3.08-2.89,3.08c-1.57,0-2.78-1.15-2.78-2.99c0-1.94,1.27-3.08,2.88-3.08
		C59.99,115.77,61.12,116.98,61.12,118.76z M56.51,118.82c0,1.27,0.73,2.23,1.76,2.23c1.01,0,1.76-0.95,1.76-2.25
		c0-0.98-0.49-2.23-1.74-2.23C57.05,116.56,56.51,117.72,56.51,118.82z"/>
	<path d="M62.78,115.9l1.14,3.26c0.19,0.53,0.35,1.01,0.47,1.49h0.04c0.13-0.48,0.3-0.96,0.49-1.49l1.13-3.26h1.1l-2.28,5.8h-1.01
		l-2.21-5.8H62.78z"/>
	<path d="M68.61,119c0.02,1.43,0.94,2.01,1.99,2.01c0.76,0,1.21-0.13,1.61-0.3l0.18,0.76c-0.37,0.17-1.01,0.36-1.93,0.36
		c-1.79,0-2.85-1.18-2.85-2.93c0-1.75,1.03-3.13,2.72-3.13c1.9,0,2.4,1.67,2.4,2.73c0,0.22-0.02,0.38-0.04,0.49H68.61z M71.7,118.24
		c0.01-0.67-0.28-1.71-1.46-1.71c-1.07,0-1.54,0.98-1.62,1.71H71.7z"/>
	<path d="M74.03,117.72c0-0.68-0.01-1.27-0.05-1.81h0.92l0.04,1.14h0.05c0.26-0.78,0.9-1.27,1.61-1.27c0.12,0,0.2,0.01,0.3,0.04v1
		c-0.11-0.02-0.22-0.04-0.36-0.04c-0.74,0-1.27,0.56-1.42,1.36c-0.02,0.14-0.05,0.31-0.05,0.49v3.09h-1.04V117.72z"/>
	<path d="M82.46,114.9h-0.02l-1.36,0.73l-0.2-0.8l1.7-0.91h0.9v7.8h-1.02V114.9z"/>
	<path d="M90.77,114.66c-0.22-0.01-0.49,0-0.79,0.05c-1.66,0.28-2.53,1.49-2.71,2.77h0.04c0.37-0.49,1.02-0.9,1.88-0.9
		c1.38,0,2.35,1,2.35,2.52c0,1.43-0.97,2.75-2.59,2.75c-1.67,0-2.76-1.3-2.76-3.32c0-1.54,0.55-2.75,1.32-3.51
		c0.65-0.64,1.51-1.03,2.49-1.15c0.31-0.05,0.58-0.06,0.77-0.06V114.66z M90.47,119.15c0-1.12-0.64-1.79-1.61-1.79
		c-0.64,0-1.22,0.4-1.51,0.96c-0.07,0.12-0.12,0.28-0.12,0.47c0.02,1.28,0.61,2.23,1.71,2.23
		C89.86,121.03,90.47,120.27,90.47,119.15z"/>
	<path d="M95.36,117.8c0-0.74-0.02-1.34-0.05-1.9h0.95l0.05,1h0.02c0.43-0.71,1.12-1.13,2.06-1.13c1.4,0,2.46,1.19,2.46,2.95
		c0,2.09-1.27,3.12-2.64,3.12c-0.77,0-1.44-0.34-1.79-0.91H96.4v3.15h-1.04V117.8z M96.4,119.35c0,0.16,0.02,0.3,0.05,0.43
		c0.19,0.73,0.83,1.24,1.58,1.24c1.12,0,1.76-0.91,1.76-2.24c0-1.16-0.61-2.16-1.73-2.16c-0.72,0-1.39,0.52-1.6,1.31
		c-0.04,0.13-0.07,0.29-0.07,0.43V119.35z"/>
	<path d="M103.46,114.24v1.67h1.51v0.8h-1.51v3.13c0,0.72,0.2,1.13,0.79,1.13c0.28,0,0.48-0.04,0.61-0.07l0.05,0.79
		c-0.2,0.08-0.53,0.14-0.94,0.14c-0.49,0-0.89-0.16-1.14-0.44c-0.3-0.31-0.41-0.83-0.41-1.51v-3.17h-0.9v-0.8h0.9v-1.39
		L103.46,114.24z"/>
	<path d="M105.87,121.09c0-0.44,0.3-0.76,0.72-0.76s0.71,0.31,0.71,0.76c0,0.43-0.28,0.76-0.72,0.76
		C106.16,121.84,105.87,121.52,105.87,121.09z"/>
</g>
<g>
	<path d="M218,226c0,2.2-1.8,4-4,4H36c-2.2,0-4-1.8-4-4v-24c0-2.2,1.8-4,4-4h178c2.2,0,4,1.8,4,4V226z"/>
</g>
<g>
	<path class="st3" d="M89.32,219.24c-0.51,0.26-1.54,0.51-2.85,0.51c-3.04,0-5.33-1.92-5.33-5.46c0-3.38,2.29-5.67,5.63-5.67
		c1.34,0,2.19,0.29,2.56,0.48L89,210.25c-0.53-0.26-1.28-0.45-2.18-0.45c-2.53,0-4.21,1.62-4.21,4.45c0,2.64,1.52,4.34,4.15,4.34
		c0.85,0,1.71-0.18,2.27-0.45L89.32,219.24z"/>
	<path class="st3" d="M95.19,219.59l-0.11-0.98h-0.05c-0.43,0.61-1.26,1.15-2.37,1.15c-1.57,0-2.37-1.1-2.37-2.22
		c0-1.87,1.67-2.9,4.66-2.88v-0.16c0-0.64-0.18-1.79-1.76-1.79c-0.72,0-1.47,0.22-2.02,0.58l-0.32-0.93
		c0.64-0.42,1.57-0.69,2.54-0.69c2.37,0,2.95,1.62,2.95,3.17v2.9c0,0.67,0.03,1.33,0.13,1.86H95.19z M94.98,215.64
		c-1.54-0.03-3.28,0.24-3.28,1.74c0,0.91,0.61,1.34,1.33,1.34c1.01,0,1.65-0.64,1.87-1.3c0.05-0.14,0.08-0.3,0.08-0.45V215.64z"/>
	<path class="st3" d="M98.61,208.23h1.41v11.36h-1.41V208.23z"/>
	<path class="st3" d="M102.38,208.23h1.41v11.36h-1.41V208.23z"/>
	<path class="st3" d="M111.25,209.62v2.22h2.02v1.07h-2.02v4.18c0,0.96,0.27,1.5,1.06,1.5c0.37,0,0.64-0.05,0.82-0.1l0.06,1.06
		c-0.27,0.11-0.7,0.19-1.25,0.19c-0.66,0-1.18-0.21-1.52-0.59c-0.4-0.42-0.54-1.1-0.54-2.02v-4.23h-1.2v-1.07h1.2v-1.86
		L111.25,209.62z"/>
	<path class="st3" d="M121.76,215.66c0,2.87-1.98,4.11-3.86,4.11c-2.1,0-3.71-1.54-3.71-3.99c0-2.59,1.7-4.11,3.84-4.11
		C120.26,211.67,121.76,213.29,121.76,215.66z M115.62,215.74c0,1.7,0.98,2.98,2.35,2.98c1.34,0,2.35-1.26,2.35-3.01
		c0-1.31-0.66-2.98-2.32-2.98C116.34,212.73,115.62,214.26,115.62,215.74z"/>
	<path class="st3" d="M128.72,216.2l-1.12,3.39h-1.44l3.67-10.79h1.68l3.68,10.79h-1.49l-1.15-3.39H128.72z M132.26,215.11
		l-1.06-3.11c-0.24-0.7-0.4-1.34-0.56-1.97h-0.03c-0.16,0.64-0.34,1.3-0.54,1.95l-1.06,3.12H132.26z"/>
	<path class="st3" d="M142.05,219.31c-0.37,0.19-1.18,0.45-2.22,0.45c-2.34,0-3.86-1.58-3.86-3.95c0-2.38,1.63-4.11,4.16-4.11
		c0.83,0,1.57,0.21,1.95,0.4l-0.32,1.09c-0.34-0.19-0.86-0.37-1.63-0.37c-1.78,0-2.74,1.31-2.74,2.93c0,1.79,1.15,2.9,2.69,2.9
		c0.8,0,1.33-0.21,1.73-0.38L142.05,219.31z"/>
	<path class="st3" d="M145.6,209.62v2.22h2.02v1.07h-2.02v4.18c0,0.96,0.27,1.5,1.06,1.5c0.37,0,0.64-0.05,0.82-0.1l0.06,1.06
		c-0.27,0.11-0.7,0.19-1.25,0.19c-0.66,0-1.18-0.21-1.52-0.59c-0.4-0.42-0.54-1.1-0.54-2.02v-4.23h-1.2v-1.07h1.2v-1.86
		L145.6,209.62z"/>
	<path class="st3" d="M150.77,209.67c0.02,0.48-0.34,0.86-0.9,0.86c-0.5,0-0.85-0.38-0.85-0.86c0-0.5,0.37-0.88,0.88-0.88
		C150.43,208.79,150.77,209.17,150.77,209.67z M149.2,219.59v-7.75h1.41v7.75H149.2z"/>
	<path class="st3" d="M159.96,215.66c0,2.87-1.99,4.11-3.86,4.11c-2.1,0-3.71-1.54-3.71-3.99c0-2.59,1.7-4.11,3.84-4.11
		C158.45,211.67,159.96,213.29,159.96,215.66z M153.81,215.74c0,1.7,0.98,2.98,2.35,2.98c1.34,0,2.35-1.26,2.35-3.01
		c0-1.31-0.66-2.98-2.32-2.98C154.53,212.73,153.81,214.26,153.81,215.74z"/>
	<path class="st3" d="M161.73,213.94c0-0.8-0.02-1.46-0.06-2.1h1.25l0.08,1.28h0.03c0.38-0.74,1.28-1.46,2.56-1.46
		c1.07,0,2.74,0.64,2.74,3.3v4.63h-1.41v-4.47c0-1.25-0.46-2.29-1.79-2.29c-0.93,0-1.65,0.66-1.89,1.44
		c-0.06,0.18-0.1,0.42-0.1,0.66v4.66h-1.41V213.94z"/>
</g>
<g>
</g>
<g>
</g>
<g>
</g>
<g>
</g>
<g>
</g>
<g>
</g>
<g>
</g>
<g>
</g>
<g>
</g>
<g>
</g>
<g>
</g>
</svg>
