<?xml version="1.0" encoding="utf-8"?>
<!-- Generator: Adobe Illustrator 23.0.6, SVG Export Plug-In . SVG Version: 6.00 Build 0)  -->
<svg version="1.1" id="Layer_1" xmlns="http://www.w3.org/2000/svg" xmlns:xlink="http://www.w3.org/1999/xlink" x="0px" y="0px"
	 viewBox="0 0 250 250" style="enable-background:new 0 0 250 250;" xml:space="preserve">
<style type="text/css">
	.st0{fill:#FFFFFF;}
	.st1{font-family:'MyriadPro-Regular';}
	.st2{font-size:30.2312px;}
	.st3{font-size:16px;}
</style>
<g>
	<g>
		<rect x="10.5" y="11.5" class="st0" width="53" height="53"/>
		<path d="M64,65H10V11h54V65z M11,64h52V12H11V64z"/>
	</g>
	<g>
		<line class="st0" x1="9.5" y1="64.5" x2="63.5" y2="11.5"/>
		<rect x="-1.33" y="37.5" transform="matrix(0.7139 -0.7002 0.7002 0.7139 -16.1667 36.4301)" width="75.66" height="1"/>
	</g>
	<g>
		<line class="st0" x1="10.5" y1="11.5" x2="63.5" y2="64.5"/>
		<rect x="36.5" y="0.52" transform="matrix(0.7071 -0.7071 0.7071 0.7071 -16.033 37.2929)" width="1" height="74.95"/>
	</g>
</g>
<text transform="matrix(1 0 0 1 75.6514 63.5635)" class="st1 st2">Logo </text>
<text transform="matrix(1 0 0 1 9.1304 127.7246)"><tspan x="0" y="0" class="st1 st3">Details about the promotion. </tspan><tspan x="0" y="19.2" class="st1 st3">Ideally over 16 pt. </tspan></text>
<g>
	<path d="M213,218c0,2.2-1.8,4-4,4H42c-2.2,0-4-1.8-4-4v-20c0-2.2,1.8-4,4-4h167c2.2,0,4,1.8,4,4V218z"/>
</g>
<text transform="matrix(1 0 0 1 79.269 212.6958)" class="st0 st1 st3">Call to Action </text>
</svg>
